<svg id="Layer_1" enable-background="new 0 0 510 510" height="512" viewBox="0 0 510 510" width="512" xmlns="http://www.w3.org/2000/svg"><g><path d="m414.099 275.473c-42.497-42.497-98.999-65.902-159.099-65.902s-116.603 23.404-159.1 65.901c-38.94 38.941-61.836 89.646-65.396 144.099h448.992c-3.561-54.453-26.456-105.157-65.397-144.098z"/><path d="m431.914 151.967c1.736.694 2.475 2.057 2.76 2.807.285.751.639 2.26-.198 3.934l-16.056 35.132 27.289 12.463 15.734-34.451c4.228-8.645 4.694-18.736 1.271-27.739-3.458-9.096-10.623-16.386-19.659-20-2.248-.899-3.48-3.3-2.962-5.616l8.655-19.282-27.368-12.286-9.375 20.886-.238.715c-5.834 17.504 3.016 36.584 20.147 43.437z"/><path d="m321.942 65.467c1.736.695 2.475 2.057 2.76 2.808.285.75.639 2.259-.198 3.933l-16.057 35.133 27.289 12.463 15.733-34.449c4.23-8.645 4.696-18.738 1.273-27.741-3.458-9.097-10.624-16.386-19.659-20-2.249-.899-3.482-3.299-2.962-5.614l8.654-19.285-27.368-12.285-9.374 20.885-.238.713c-5.835 17.505 3.014 36.585 20.147 43.439z"/><path d="m176.914 65.467c1.736.694 2.475 2.057 2.76 2.808.285.75.639 2.259-.197 3.931l-16.057 35.134 27.289 12.463 15.734-34.451c4.228-8.645 4.694-18.736 1.271-27.738-3.458-9.097-10.623-16.386-19.658-20.001-2.249-.899-3.48-3.299-2.963-5.614l8.655-19.284-27.368-12.286-9.375 20.886-.237.714c-5.835 17.504 3.013 36.584 20.146 43.438z"/><path d="m66.941 146.467c1.736.695 2.475 2.057 2.76 2.808s.64 2.259-.197 3.933l-16.056 35.132 27.288 12.463 15.734-34.45c4.228-8.645 4.695-18.737 1.272-27.739-3.458-9.097-10.624-16.387-19.659-20.001-2.249-.899-3.481-3.299-2.963-5.614l8.656-19.284-27.368-12.286-9.375 20.886-.238.714c-5.835 17.504 3.015 36.584 20.146 43.438z"/><path d="m285 181.32v-1.749c0-16.568-13.432-30-30-30-16.568 0-30 13.432-30 30v1.749c9.886-1.15 19.896-1.749 30-1.749 10.103 0 20.114.599 30 1.749z"/><path d="m0 449.571h510v60h-510z"/></g></svg>