<?xml version="1.0" encoding="UTF-8"?>
<!DOCTYPE svg PUBLIC "-//W3C//DTD SVG 1.1//EN" "http://www.w3.org/Graphics/SVG/1.1/DTD/svg11.dtd">
<!-- Creator: CorelDRAW 2019 (64 Bit Versão de avaliação) -->
<svg xmlns="http://www.w3.org/2000/svg" xml:space="preserve" width="53mm" height="53mm" version="1.1" style="shape-rendering:geometricPrecision; text-rendering:geometricPrecision; image-rendering:optimizeQuality; fill-rule:evenodd; clip-rule:evenodd"
viewBox="0 0 5300 5300"
 xmlns:xlink="http://www.w3.org/1999/xlink">
 <defs>
  <style type="text/css">
   <![CDATA[
    .fil0 {fill:#FFC700}
   ]]>
  </style>
 </defs>
 <g id="Camada_x0020_1">
  <metadata id="CorelCorpID_0Corel-Layer"/>
  <g id="_2183036774592">
   <g>
    <g>
     <path class="fil0" d="M4921.32 2072.72l-2208.33 -2024.31c-71.94,-65.83 -182.6,-64.22 -252.54,3.62l-2085.65 2024.3c-35.7,34.66 -55.89,82.33 -55.89,132.07l0 2907.63c0,101.64 82.38,184.03 184.03,184.03l1533.57 0c101.64,0 184.03,-82.39 184.03,-184.03l0 -1349.53 858.78 0 0 1349.53c0,101.64 82.38,184.03 184.03,184.03l1533.57 0c101.64,0 184.03,-82.33 184.03,-184.03l0 -2907.62c0,-51.59 -21.6,-100.78 -59.63,-135.69zm-308.43 2859.29l-1165.51 0 0 -1349.53c0,-101.64 -82.39,-184.03 -184.03,-184.03l-1226.83 0c-101.64,0 -184.03,82.39 -184.03,184.03l0 1349.53 -1165.52 0 0 -2645.77 1905.25 -1849.16 2020.68 1852.29 0 2642.64 -0.01 0z"/>
    </g>
   </g>
   <g>
   </g>
   <g>
   </g>
   <g>
   </g>
   <g>
   </g>
   <g>
   </g>
   <g>
   </g>
   <g>
   </g>
   <g>
   </g>
   <g>
   </g>
   <g>
   </g>
   <g>
   </g>
   <g>
   </g>
   <g>
   </g>
   <g>
   </g>
   <g>
   </g>
  </g>
 </g>
</svg>
