<?xml version="1.0" encoding="UTF-8"?>
<!DOCTYPE svg PUBLIC "-//W3C//DTD SVG 1.1//EN" "http://www.w3.org/Graphics/SVG/1.1/DTD/svg11.dtd">
<!-- Creator: CorelDRAW 2019 (64 Bit Versão de avaliação) -->
<svg xmlns="http://www.w3.org/2000/svg" xml:space="preserve" width="53mm" height="53mm" version="1.1" style="shape-rendering:geometricPrecision; text-rendering:geometricPrecision; image-rendering:optimizeQuality; fill-rule:evenodd; clip-rule:evenodd"
viewBox="0 0 5300 5300"
 xmlns:xlink="http://www.w3.org/1999/xlink">
 <defs>
  <style type="text/css">
   <![CDATA[
    .fil0 {fill:#FFC700}
   ]]>
  </style>
 </defs>
 <g id="Camada_x0020_1">
  <metadata id="CorelCorpID_0Corel-Layer"/>
  <g id="_2183247527824">
   <g>
    <g>
     <path class="fil0" d="M1159.31 0.07l-993.75 0c-91.42,0 -165.62,74.2 -165.62,165.62l0 993.75c0,91.43 74.2,165.63 165.63,165.63l993.74 0c91.43,0 165.63,-74.2 165.63,-165.63l0 -993.75c0,-91.42 -74.2,-165.62 -165.63,-165.62zm-165.62 993.75l-662.5 0 0 -662.5 662.5 0 0 662.5z"/>
    </g>
   </g>
   <g>
    <g>
     <path class="fil0" d="M1159.31 1987.57l-993.75 0c-91.43,0 -165.63,74.2 -165.63,165.63l0 993.74c0,91.43 74.2,165.63 165.63,165.63l993.75 -0.01c91.43,0 165.63,-74.2 165.63,-165.63l0 -993.74c0,-91.42 -74.2,-165.62 -165.63,-165.62zm-165.62 993.74l-662.5 0 0 -662.49 662.5 0 0 662.49z"/>
    </g>
   </g>
   <g>
    <g>
     <path class="fil0" d="M1159.31 3975.06l-993.75 0c-91.43,0 -165.63,74.2 -165.63,165.63l0 993.75c0,91.43 74.2,165.63 165.63,165.63l993.75 -0.01c91.43,0 165.63,-74.2 165.63,-165.63l0 -993.75c0,-91.42 -74.2,-165.62 -165.63,-165.62zm-165.62 993.75l-662.5 0 0 -662.5 662.5 0 0 662.5z"/>
    </g>
   </g>
   <g>
    <g>
     <rect class="fil0" x="1987.44" y="165.69" width="3312.49" height="331.25"/>
    </g>
   </g>
   <g>
    <g>
     <rect class="fil0" x="1987.44" y="828.19" width="3312.49" height="331.25"/>
    </g>
   </g>
   <g>
    <g>
     <rect class="fil0" x="1987.44" y="2153.19" width="3312.49" height="331.25"/>
    </g>
   </g>
   <g>
    <g>
     <rect class="fil0" x="1987.44" y="2815.69" width="3312.49" height="331.25"/>
    </g>
   </g>
   <g>
    <g>
     <rect class="fil0" x="1987.44" y="4140.69" width="3312.49" height="331.25"/>
    </g>
   </g>
   <g>
    <g>
     <rect class="fil0" x="1987.44" y="4803.19" width="3312.49" height="331.25"/>
    </g>
   </g>
   <g>
   </g>
   <g>
   </g>
   <g>
   </g>
   <g>
   </g>
   <g>
   </g>
   <g>
   </g>
   <g>
   </g>
   <g>
   </g>
   <g>
   </g>
   <g>
   </g>
   <g>
   </g>
   <g>
   </g>
   <g>
   </g>
   <g>
   </g>
   <g>
   </g>
  </g>
 </g>
</svg>
