<?xml version="1.0" encoding="UTF-8"?>
<!DOCTYPE svg PUBLIC "-//W3C//DTD SVG 1.1//EN" "http://www.w3.org/Graphics/SVG/1.1/DTD/svg11.dtd">
<!-- Creator: CorelDRAW 2019 (64 Bit Versão de avaliação) -->
<svg xmlns="http://www.w3.org/2000/svg" xml:space="preserve" width="53mm" height="53mm" version="1.1" style="shape-rendering:geometricPrecision; text-rendering:geometricPrecision; image-rendering:optimizeQuality; fill-rule:evenodd; clip-rule:evenodd"
viewBox="0 0 5300 5300"
 xmlns:xlink="http://www.w3.org/1999/xlink">
 <defs>
  <style type="text/css">
   <![CDATA[
    .fil0 {fill:#000}
   ]]>
  </style>
 </defs>
 <g id="Camada_x0020_1">
  <metadata id="CorelCorpID_0Corel-Layer"/>
  <g id="_2183036801824">
   <g>
    <g>
     <path class="fil0" d="M2649.91 2656.9c-1396.7,0 -2533.03,1136.35 -2533.03,2533.03 0,60.79 49.34,110.14 110.14,110.14 60.8,0 110.14,-49.34 110.14,-110.14 0,-1275.33 1037.44,-2312.77 2312.77,-2312.77 1275.33,0 2312.77,1037.44 2312.77,2312.77 0,60.79 49.34,110.14 110.14,110.14 60.79,0 110.14,-49.34 110.14,-110.14 -0.02,-1396.91 -1136.37,-2533.03 -2533.07,-2533.03z"/>
    </g>
   </g>
   <g>
    <g>
     <path class="fil0" d="M2649.91 0.07c-667.84,0 -1211.45,543.39 -1211.45,1211.45 0,668.06 543.62,1211.45 1211.45,1211.45 667.83,0 1211.45,-543.39 1211.45,-1211.45 0,-668.06 -543.6,-1211.45 -1211.45,-1211.45zm0 2202.64c-546.48,0 -991.19,-444.71 -991.19,-991.19 0,-546.48 444.71,-991.19 991.19,-991.19 546.48,0 991.19,444.71 991.19,991.19 0,546.48 -444.71,991.19 -991.19,991.19z"/>
    </g>
   </g>
   <g>
   </g>
   <g>
   </g>
   <g>
   </g>
   <g>
   </g>
   <g>
   </g>
   <g>
   </g>
   <g>
   </g>
   <g>
   </g>
   <g>
   </g>
   <g>
   </g>
   <g>
   </g>
   <g>
   </g>
   <g>
   </g>
   <g>
   </g>
   <g>
   </g>
  </g>
 </g>
</svg>
